<svg xmlns="http://www.w3.org/2000/svg" viewBox="0 0 512 512" width="512" height="512">
  <rect width="512" height="512" rx="114" fill="#2d6b5e"/>
  <g transform="translate(153.3,353.2) scale(0.2656,-0.2656)">
    <path d="M582 -10 262 399Q249 416 235.0 435.0Q221 454 207 474H206L208 164Q208 137 207.0 112.0Q206 87 204 74Q220 76 244.5 76.5Q269 77 279 77V0H51V66Q74 67 89.5 72.0Q105 77 113.5 95.0Q122 113 122 153L120 536Q120 563 121.0 588.0Q122 613 124 626Q108 625 83.5 624.5Q59 624 48 623V700H205L511 314Q536 282 552.5 259.0Q569 236 581 219H582V536Q582 563 583.0 588.0Q584 613 585 626Q569 625 545.0 624.5Q521 624 510 623V700H738V634Q716 633 700.0 628.0Q684 623 675.5 605.5Q667 588 667 547V-10Z" fill="#ffffff"/>
  </g>
</svg>