<svg xmlns="http://www.w3.org/2000/svg" viewBox="0 0 3437 1280" width="124" height="58">
  <g transform="translate(0,1006) scale(1,-1)">
    <path d="M582 -10 262 399Q249 416 235.0 435.0Q221 454 207 474H206L208 164Q208 137 207.0 112.0Q206 87 204 74Q220 76 244.5 76.5Q269 77 279 77V0H51V66Q74 67 89.5 72.0Q105 77 113.5 95.0Q122 113 122 153L120 536Q120 563 121.0 588.0Q122 613 124 626Q108 625 83.5 624.5Q59 624 48 623V700H205L511 314Q536 282 552.5 259.0Q569 236 581 219H582V536Q582 563 583.0 588.0Q584 613 585 626Q569 625 545.0 624.5Q521 624 510 623V700H738V634Q716 633 700.0 628.0Q684 623 675.5 605.5Q667 588 667 547V-10Z" fill="#2c2218"/>
    <g transform="translate(773,0)">
      <path d="M329 511Q359 511 395.0 506.5Q431 502 463 494Q455 434 447.5 374.5Q440 315 433.5 261.5Q427 208 423.0 165.5Q419 123 419 99Q419 79 422.0 59.0Q425 39 447 39Q464 39 484.5 61.0Q505 83 520 136L548 130Q545 112 535.5 88.5Q526 65 510.0 42.0Q494 19 471.0 4.0Q448 -11 418 -11Q378 -11 361.0 14.0Q344 39 344 79Q344 108 349.5 142.0Q355 176 362 213H359Q335 139 309.5 94.5Q284 50 258.5 27.0Q233 4 209.0 -3.5Q185 -11 164 -11Q110 -11 73.5 29.0Q37 69 37 163Q37 233 55.0 296.0Q73 359 109.5 407.5Q146 456 201.0 483.5Q256 511 329 511ZM298 475Q253 475 219.5 450.0Q186 425 164.0 382.5Q142 340 131.5 287.5Q121 235 121 180Q121 116 135.0 74.5Q149 33 186 33Q213 33 240.5 60.0Q268 87 292.0 132.5Q316 178 335.0 234.5Q354 291 365.0 350.0Q376 409 376 463Q361 469 341.0 472.0Q321 475 298 475Z" fill="#2d6b5e"/>
    </g>
    <g transform="translate(1306,0)">
      <path d="M101 0Q100 7 100 13V26Q100 43 101.0 66.5Q102 90 105.5 129.0Q109 168 116 231Q123 296 127.0 329.0Q131 362 133.0 377.5Q135 393 135 403Q136 423 132.5 442.0Q129 461 108 461Q92 461 71.0 439.0Q50 417 35 364L7 370Q10 388 19.5 411.5Q29 435 45.0 458.0Q61 481 84.0 496.0Q107 511 137 511Q182 511 197.0 480.0Q212 449 210 397Q209 375 204.5 348.5Q200 322 195 293H198Q227 380 258.5 427.0Q290 474 322.5 492.5Q355 511 387 511Q417 511 437.0 495.5Q457 480 457 453Q457 435 444.5 420.0Q432 405 411 405Q393 405 380.0 416.0Q367 427 365 447Q337 453 310.5 429.0Q284 405 260.5 360.5Q237 316 219.5 261.0Q202 206 192.0 149.0Q182 92 182 43Q182 28 182.5 20.5Q183 13 184 0Z" fill="#2d6b5e"/>
    </g>
    <g transform="translate(1746,0)">
      <path d="M286 511Q340 511 383.0 485.5Q426 460 451.0 411.0Q476 362 476 292Q476 212 447.0 142.5Q418 73 363.5 31.0Q309 -11 231 -11Q165 -11 122.5 19.0Q80 49 59.5 100.0Q39 151 39 213Q39 294 68.5 362.0Q98 430 153.5 470.5Q209 511 286 511ZM271 474Q227 475 195.0 444.5Q163 414 145.5 362.0Q128 310 127 246Q126 212 131.0 174.0Q136 136 148.5 103.0Q161 70 183.5 49.0Q206 28 240 27Q280 26 308.0 48.5Q336 71 353.0 107.0Q370 143 378.5 184.0Q387 225 388 261Q389 296 384.5 333.0Q380 370 367.0 402.0Q354 434 331.0 453.5Q308 473 271 474Z" fill="#2d6b5e"/>
    </g>
    <g transform="translate(2252,0)">
      <path d="M733 -11Q686 -11 669.5 14.0Q653 39 653 85Q653 113 658.5 151.0Q664 189 671.0 232.0Q678 275 683.5 319.0Q689 363 689 403Q689 415 685.0 429.0Q681 443 671.0 453.5Q661 464 641 464Q613 464 586.0 438.0Q559 412 536.0 368.0Q513 324 495.5 270.5Q478 217 468.0 160.5Q458 104 458 53Q458 38 458.5 25.5Q459 13 460 0H376Q375 7 375 13V26Q375 64 380.5 116.0Q386 168 393.5 223.0Q401 278 406.5 327.0Q412 376 411 407Q410 424 401.0 444.0Q392 464 363 464Q335 464 308.5 438.0Q282 412 259.0 368.0Q236 324 218.0 270.5Q200 217 190.0 160.5Q180 104 180 53Q180 38 180.5 25.5Q181 13 182 0H98Q97 7 97 13V26Q97 43 98.5 65.5Q100 88 104.5 125.5Q109 163 116 226Q123 285 127.0 318.0Q131 351 133.0 368.5Q135 386 135.5 395.5Q136 405 136 416Q136 434 131.0 447.5Q126 461 109 461Q93 461 72.0 439.0Q51 417 36 364L8 370Q11 388 20.5 411.5Q30 435 46.0 458.0Q62 481 85.0 496.0Q108 511 138 511Q171 511 187.0 494.5Q203 478 208.5 451.5Q214 425 212 394Q211 366 206.0 337.5Q201 309 197 288H200Q232 379 263.5 427.0Q295 475 325.5 493.0Q356 511 383 511Q423 511 446.5 492.5Q470 474 480.0 448.0Q490 422 490 397Q490 369 486.0 349.0Q482 329 473 291H476Q509 382 541.5 429.5Q574 477 605.0 494.0Q636 511 663 511Q703 511 726.0 493.0Q749 475 758.5 445.5Q768 416 768 381Q768 326 760.0 268.5Q752 211 743.5 162.5Q735 114 735 85Q735 67 739.5 53.0Q744 39 762 39Q779 39 800.0 60.5Q821 82 836 136L864 129Q861 112 851.0 88.0Q841 64 825.0 41.5Q809 19 786.0 4.0Q763 -11 733 -11Z" fill="#2d6b5e"/>
    </g>
    <g transform="translate(3113,0)">
      <path d="M133 511Q175 511 196.0 482.5Q217 454 217 407Q217 377 211.5 338.5Q206 300 198.0 256.0Q190 212 184.5 167.5Q179 123 179 81Q179 61 186.5 50.0Q194 39 210 39Q227 39 247.5 61.0Q268 83 283 136L311 130Q307 109 297.5 84.5Q288 60 273.0 38.5Q258 17 236.5 3.0Q215 -11 187 -11Q141 -11 119.0 13.0Q97 37 97 83Q97 127 103.0 168.5Q109 210 116.5 250.5Q124 291 130.0 332.0Q136 373 136 416Q136 429 130.5 445.0Q125 461 108 461Q92 461 71.0 439.0Q50 417 35 364L7 370Q10 388 19.0 411.5Q28 435 43.5 458.0Q59 481 81.0 496.0Q103 511 133 511ZM190 727Q213 727 228.0 711.5Q243 696 243 670Q243 645 227.0 629.5Q211 614 189 614Q167 614 151.5 629.5Q136 645 136 670Q136 696 152.0 711.5Q168 727 190 727Z" fill="#2d6b5e"/>
    </g>
  </g>
</svg>